<mxfile host="app.diagrams.net" modified="2023-12-03T04:15:07.119Z" agent="Mozilla/5.0 (Windows NT 10.0; Win64; x64) AppleWebKit/537.36 (KHTML, like Gecko) Chrome/119.0.0.0 Safari/537.36" etag="lIKpk4NFBv-fBkQ6LyQl" version="22.1.5" type="github">
  <diagram name="페이지-1" id="nbhwmutCLqjqxwWpVq8D">
    <mxGraphModel dx="1221" dy="737" grid="1" gridSize="10" guides="1" tooltips="1" connect="1" arrows="1" fold="1" page="1" pageScale="1" pageWidth="827" pageHeight="1169" math="0" shadow="0">
      <root>
        <mxCell id="0" />
        <mxCell id="1" parent="0" />
        <mxCell id="r3BMTjxNGoY3p2MeXEkz-1" value="A" style="ellipse;whiteSpace=wrap;html=1;aspect=fixed;" vertex="1" parent="1">
          <mxGeometry x="220" y="140" width="80" height="80" as="geometry" />
        </mxCell>
        <mxCell id="r3BMTjxNGoY3p2MeXEkz-2" value="B" style="ellipse;whiteSpace=wrap;html=1;aspect=fixed;" vertex="1" parent="1">
          <mxGeometry x="300" y="220" width="80" height="80" as="geometry" />
        </mxCell>
        <mxCell id="r3BMTjxNGoY3p2MeXEkz-3" value="D" style="ellipse;whiteSpace=wrap;html=1;aspect=fixed;" vertex="1" parent="1">
          <mxGeometry x="140" y="220" width="80" height="80" as="geometry" />
        </mxCell>
        <mxCell id="r3BMTjxNGoY3p2MeXEkz-4" value="C" style="ellipse;whiteSpace=wrap;html=1;aspect=fixed;" vertex="1" parent="1">
          <mxGeometry x="220" y="300" width="80" height="80" as="geometry" />
        </mxCell>
        <mxCell id="r3BMTjxNGoY3p2MeXEkz-14" value="front car" style="rounded=1;whiteSpace=wrap;html=1;" vertex="1" parent="1">
          <mxGeometry x="200" y="70" width="120" height="60" as="geometry" />
        </mxCell>
        <mxCell id="r3BMTjxNGoY3p2MeXEkz-15" value="front animal" style="rounded=1;whiteSpace=wrap;html=1;" vertex="1" parent="1">
          <mxGeometry x="400" y="230" width="120" height="60" as="geometry" />
        </mxCell>
        <mxCell id="r3BMTjxNGoY3p2MeXEkz-16" value="baby in car" style="rounded=1;whiteSpace=wrap;html=1;" vertex="1" parent="1">
          <mxGeometry x="200" y="390" width="120" height="60" as="geometry" />
        </mxCell>
        <mxCell id="r3BMTjxNGoY3p2MeXEkz-17" value="broken car" style="rounded=1;whiteSpace=wrap;html=1;" vertex="1" parent="1">
          <mxGeometry x="10" y="230" width="120" height="60" as="geometry" />
        </mxCell>
        <mxCell id="r3BMTjxNGoY3p2MeXEkz-18" value="" style="shape=cylinder3;whiteSpace=wrap;html=1;boundedLbl=1;backgroundOutline=1;size=15;" vertex="1" parent="1">
          <mxGeometry x="468" y="490" width="60" height="80" as="geometry" />
        </mxCell>
        <mxCell id="r3BMTjxNGoY3p2MeXEkz-19" value="" style="ellipse;whiteSpace=wrap;html=1;aspect=fixed;" vertex="1" parent="1">
          <mxGeometry x="448" y="450" width="100" height="100" as="geometry" />
        </mxCell>
        <mxCell id="r3BMTjxNGoY3p2MeXEkz-20" value="파랑" style="text;html=1;strokeColor=none;fillColor=none;align=center;verticalAlign=middle;whiteSpace=wrap;rounded=0;" vertex="1" parent="1">
          <mxGeometry x="508" y="400" width="60" height="30" as="geometry" />
        </mxCell>
        <mxCell id="r3BMTjxNGoY3p2MeXEkz-21" value="" style="shape=flexArrow;endArrow=classic;html=1;rounded=0;" edge="1" parent="1">
          <mxGeometry width="50" height="50" relative="1" as="geometry">
            <mxPoint x="497.5" y="440" as="sourcePoint" />
            <mxPoint x="497.5" y="380" as="targetPoint" />
          </mxGeometry>
        </mxCell>
        <mxCell id="r3BMTjxNGoY3p2MeXEkz-22" value="" style="shape=flexArrow;endArrow=classic;html=1;rounded=0;" edge="1" parent="1">
          <mxGeometry width="50" height="50" relative="1" as="geometry">
            <mxPoint x="433" y="499.5" as="sourcePoint" />
            <mxPoint x="358" y="499.5" as="targetPoint" />
          </mxGeometry>
        </mxCell>
        <mxCell id="r3BMTjxNGoY3p2MeXEkz-23" value="" style="shape=flexArrow;endArrow=classic;html=1;rounded=0;" edge="1" parent="1">
          <mxGeometry width="50" height="50" relative="1" as="geometry">
            <mxPoint x="568" y="499.5" as="sourcePoint" />
            <mxPoint x="643" y="500" as="targetPoint" />
          </mxGeometry>
        </mxCell>
        <mxCell id="r3BMTjxNGoY3p2MeXEkz-24" value="" style="shape=flexArrow;endArrow=classic;html=1;rounded=0;" edge="1" parent="1">
          <mxGeometry width="50" height="50" relative="1" as="geometry">
            <mxPoint x="498.5" y="590" as="sourcePoint" />
            <mxPoint x="497.5" y="660" as="targetPoint" />
          </mxGeometry>
        </mxCell>
        <mxCell id="r3BMTjxNGoY3p2MeXEkz-25" value="초록" style="text;html=1;strokeColor=none;fillColor=none;align=center;verticalAlign=middle;whiteSpace=wrap;rounded=0;" vertex="1" parent="1">
          <mxGeometry x="568" y="520" width="60" height="30" as="geometry" />
        </mxCell>
        <mxCell id="r3BMTjxNGoY3p2MeXEkz-26" value="초록" style="text;html=1;strokeColor=none;fillColor=none;align=center;verticalAlign=middle;whiteSpace=wrap;rounded=0;" vertex="1" parent="1">
          <mxGeometry x="368" y="520" width="60" height="30" as="geometry" />
        </mxCell>
        <mxCell id="r3BMTjxNGoY3p2MeXEkz-27" value="빨강" style="text;html=1;strokeColor=none;fillColor=none;align=center;verticalAlign=middle;whiteSpace=wrap;rounded=0;" vertex="1" parent="1">
          <mxGeometry x="508" y="600" width="60" height="30" as="geometry" />
        </mxCell>
      </root>
    </mxGraphModel>
  </diagram>
</mxfile>
